G04 #@! TF.FileFunction,Copper,L2,Bot,Signal*
%FSLAX46Y46*%
G04 Gerber Fmt 4.6, Leading zero omitted, Abs format (unit mm)*
G04 Created by KiCad (PCBNEW 0.201412131231+5320~19~ubuntu14.04.1-product) date Mon 15 Dec 2014 13:13:02 AEDT*
%MOMM*%
G01*
G04 APERTURE LIST*
%ADD10C,0.100000*%
%ADD11R,2.235200X2.235200*%
%ADD12C,0.889000*%
%ADD13C,0.254000*%
G04 APERTURE END LIST*
D10*
D11*
X125095000Y-101600000D03*
X150495000Y-127000000D03*
X125095000Y-96520000D03*
X130175000Y-127000000D03*
X135255000Y-127000000D03*
X140335000Y-127000000D03*
X125095000Y-116840000D03*
X125095000Y-106680000D03*
X125095000Y-111760000D03*
X125095000Y-127000000D03*
X125095000Y-121920000D03*
X145415000Y-127000000D03*
D12*
X146050000Y-104140000D03*
X132080000Y-114935000D03*
X142875000Y-109220000D03*
X129540000Y-100330000D03*
X130175000Y-106680000D03*
X130175000Y-119380000D03*
X137160000Y-107950000D03*
X136525000Y-99060000D03*
X134620000Y-97790000D03*
X138430000Y-120650000D03*
X137160000Y-114935000D03*
X132715000Y-110490000D03*
X135255000Y-105410000D03*
X147955000Y-111125000D03*
X149860000Y-123825000D03*
X146685000Y-123190000D03*
X144145000Y-122555000D03*
X140335000Y-122555000D03*
X127000000Y-116840000D03*
X133985000Y-99060000D03*
X130175000Y-96520000D03*
X135255000Y-102870000D03*
D13*
X142875000Y-104140000D02*
X146050000Y-104140000D01*
X132080000Y-114935000D02*
X142875000Y-104140000D01*
X145415000Y-111760000D02*
X145415000Y-127000000D01*
X142875000Y-109220000D02*
X145415000Y-111760000D01*
X130175000Y-100965000D02*
X130175000Y-106680000D01*
X129540000Y-100330000D02*
X130175000Y-100965000D01*
X130175000Y-106680000D02*
X125095000Y-106680000D01*
X130810000Y-118745000D02*
X130175000Y-119380000D01*
X130810000Y-114300000D02*
X130810000Y-118745000D01*
X137160000Y-107950000D02*
X130810000Y-114300000D01*
X135890000Y-99060000D02*
X136525000Y-99060000D01*
X134620000Y-97790000D02*
X135890000Y-99060000D01*
X138430000Y-116205000D02*
X138430000Y-120650000D01*
X137160000Y-114935000D02*
X138430000Y-116205000D01*
X132715000Y-107950000D02*
X132715000Y-110490000D01*
X135255000Y-105410000D02*
X132715000Y-107950000D01*
X146685000Y-123190000D02*
X146685000Y-113665000D01*
X147955000Y-112395000D02*
X147955000Y-111125000D01*
X146685000Y-113665000D02*
X147955000Y-112395000D01*
X147320000Y-123825000D02*
X149860000Y-123825000D01*
X146685000Y-123190000D02*
X147320000Y-123825000D01*
X140335000Y-122555000D02*
X144145000Y-122555000D01*
X129540000Y-122555000D02*
X140335000Y-122555000D01*
X128270000Y-121285000D02*
X129540000Y-122555000D01*
X128270000Y-118110000D02*
X128270000Y-121285000D01*
X127000000Y-116840000D02*
X128270000Y-118110000D01*
X130810000Y-98425000D02*
X133350000Y-98425000D01*
X133350000Y-98425000D02*
X133985000Y-99060000D01*
X128905000Y-96520000D02*
X130175000Y-96520000D01*
X128905000Y-96520000D02*
X125095000Y-96520000D01*
X135255000Y-102870000D02*
X130810000Y-98425000D01*
X130810000Y-98425000D02*
X128905000Y-96520000D01*
G36*
X151125000Y-125234960D02*
X149377400Y-125234960D01*
X149135277Y-125281937D01*
X148922473Y-125421727D01*
X148780023Y-125632760D01*
X148729960Y-125882400D01*
X148729960Y-127630000D01*
X147180040Y-127630000D01*
X147180040Y-125882400D01*
X147133063Y-125640277D01*
X147129687Y-125635137D01*
X147129687Y-103926216D01*
X146965689Y-103529311D01*
X146662286Y-103225378D01*
X146265668Y-103060687D01*
X145836216Y-103060313D01*
X145439311Y-103224311D01*
X145285353Y-103378000D01*
X142875000Y-103378000D01*
X142583395Y-103436004D01*
X142336184Y-103601185D01*
X138228420Y-107708948D01*
X138075689Y-107339311D01*
X137772286Y-107035378D01*
X137604687Y-106965784D01*
X137604687Y-98846216D01*
X137440689Y-98449311D01*
X137137286Y-98145378D01*
X136740668Y-97980687D01*
X136311216Y-97980313D01*
X136011700Y-98104070D01*
X135699499Y-97791868D01*
X135699687Y-97576216D01*
X135535689Y-97179311D01*
X135232286Y-96875378D01*
X134835668Y-96710687D01*
X134406216Y-96710313D01*
X134009311Y-96874311D01*
X133705378Y-97177714D01*
X133540687Y-97574332D01*
X133540313Y-98003784D01*
X133704311Y-98400689D01*
X134007714Y-98704622D01*
X134404332Y-98869313D01*
X134621872Y-98869502D01*
X135351184Y-99598815D01*
X135351185Y-99598815D01*
X135598395Y-99763996D01*
X135728237Y-99789823D01*
X135912714Y-99974622D01*
X136309332Y-100139313D01*
X136738784Y-100139687D01*
X137135689Y-99975689D01*
X137439622Y-99672286D01*
X137604313Y-99275668D01*
X137604687Y-98846216D01*
X137604687Y-106965784D01*
X137375668Y-106870687D01*
X136946216Y-106870313D01*
X136549311Y-107034311D01*
X136245378Y-107337714D01*
X136080687Y-107734332D01*
X136080497Y-107951872D01*
X130271185Y-113761185D01*
X130106004Y-114008395D01*
X130048000Y-114300000D01*
X130048000Y-118300388D01*
X129961216Y-118300313D01*
X129564311Y-118464311D01*
X129260378Y-118767714D01*
X129095687Y-119164332D01*
X129095313Y-119593784D01*
X129259311Y-119990689D01*
X129562714Y-120294622D01*
X129959332Y-120459313D01*
X130388784Y-120459687D01*
X130785689Y-120295689D01*
X131089622Y-119992286D01*
X131254313Y-119595668D01*
X131254502Y-119378128D01*
X131348815Y-119283815D01*
X131348816Y-119283815D01*
X131447834Y-119135623D01*
X131513996Y-119036605D01*
X131513996Y-119036604D01*
X131572000Y-118745000D01*
X131572000Y-115892925D01*
X131864332Y-116014313D01*
X132293784Y-116014687D01*
X132690689Y-115850689D01*
X132994622Y-115547286D01*
X133159313Y-115150668D01*
X133159502Y-114933127D01*
X143190630Y-104902000D01*
X145285358Y-104902000D01*
X145437714Y-105054622D01*
X145834332Y-105219313D01*
X146263784Y-105219687D01*
X146660689Y-105055689D01*
X146964622Y-104752286D01*
X147129313Y-104355668D01*
X147129687Y-103926216D01*
X147129687Y-125635137D01*
X146993273Y-125427473D01*
X146782240Y-125285023D01*
X146532600Y-125234960D01*
X146177000Y-125234960D01*
X146177000Y-111760000D01*
X146118996Y-111468395D01*
X145953815Y-111221185D01*
X145953815Y-111221184D01*
X143954499Y-109221868D01*
X143954687Y-109006216D01*
X143790689Y-108609311D01*
X143487286Y-108305378D01*
X143090668Y-108140687D01*
X142661216Y-108140313D01*
X142264311Y-108304311D01*
X141960378Y-108607714D01*
X141795687Y-109004332D01*
X141795313Y-109433784D01*
X141959311Y-109830689D01*
X142262714Y-110134622D01*
X142659332Y-110299313D01*
X142876872Y-110299502D01*
X144653000Y-112075630D01*
X144653000Y-125234960D01*
X144297400Y-125234960D01*
X144055277Y-125281937D01*
X143842473Y-125421727D01*
X143700023Y-125632760D01*
X143649960Y-125882400D01*
X143649960Y-127630000D01*
X142100040Y-127630000D01*
X142100040Y-125882400D01*
X142053063Y-125640277D01*
X141913273Y-125427473D01*
X141702240Y-125285023D01*
X141452600Y-125234960D01*
X139217400Y-125234960D01*
X138975277Y-125281937D01*
X138762473Y-125421727D01*
X138620023Y-125632760D01*
X138569960Y-125882400D01*
X138569960Y-127630000D01*
X137020040Y-127630000D01*
X137020040Y-125882400D01*
X136973063Y-125640277D01*
X136833273Y-125427473D01*
X136622240Y-125285023D01*
X136372600Y-125234960D01*
X134137400Y-125234960D01*
X133895277Y-125281937D01*
X133682473Y-125421727D01*
X133540023Y-125632760D01*
X133489960Y-125882400D01*
X133489960Y-127630000D01*
X131940040Y-127630000D01*
X131940040Y-125882400D01*
X131893063Y-125640277D01*
X131753273Y-125427473D01*
X131542240Y-125285023D01*
X131292600Y-125234960D01*
X129057400Y-125234960D01*
X128815277Y-125281937D01*
X128602473Y-125421727D01*
X128460023Y-125632760D01*
X128409960Y-125882400D01*
X128409960Y-127630000D01*
X126860040Y-127630000D01*
X126860040Y-125882400D01*
X126813063Y-125640277D01*
X126673273Y-125427473D01*
X126462240Y-125285023D01*
X126212600Y-125234960D01*
X124465000Y-125234960D01*
X124465000Y-123685040D01*
X126212600Y-123685040D01*
X126454723Y-123638063D01*
X126667527Y-123498273D01*
X126809977Y-123287240D01*
X126860040Y-123037600D01*
X126860040Y-120802400D01*
X126813063Y-120560277D01*
X126673273Y-120347473D01*
X126462240Y-120205023D01*
X126212600Y-120154960D01*
X124465000Y-120154960D01*
X124465000Y-118605040D01*
X126212600Y-118605040D01*
X126454723Y-118558063D01*
X126667527Y-118418273D01*
X126809977Y-118207240D01*
X126860040Y-117957600D01*
X126860040Y-115722400D01*
X126813063Y-115480277D01*
X126673273Y-115267473D01*
X126462240Y-115125023D01*
X126212600Y-115074960D01*
X124465000Y-115074960D01*
X124465000Y-113525040D01*
X126212600Y-113525040D01*
X126454723Y-113478063D01*
X126667527Y-113338273D01*
X126809977Y-113127240D01*
X126860040Y-112877600D01*
X126860040Y-110642400D01*
X126813063Y-110400277D01*
X126673273Y-110187473D01*
X126462240Y-110045023D01*
X126212600Y-109994960D01*
X124465000Y-109994960D01*
X124465000Y-108445040D01*
X126212600Y-108445040D01*
X126454723Y-108398063D01*
X126667527Y-108258273D01*
X126809977Y-108047240D01*
X126860040Y-107797600D01*
X126860040Y-107442000D01*
X129410358Y-107442000D01*
X129562714Y-107594622D01*
X129959332Y-107759313D01*
X130388784Y-107759687D01*
X130785689Y-107595689D01*
X131089622Y-107292286D01*
X131254313Y-106895668D01*
X131254687Y-106466216D01*
X131090689Y-106069311D01*
X130937000Y-105915353D01*
X130937000Y-100965000D01*
X130878996Y-100673396D01*
X130878996Y-100673395D01*
X130812834Y-100574376D01*
X130713816Y-100426185D01*
X130619499Y-100331868D01*
X130619687Y-100116216D01*
X130455689Y-99719311D01*
X130152286Y-99415378D01*
X129755668Y-99250687D01*
X129326216Y-99250313D01*
X128929311Y-99414311D01*
X128625378Y-99717714D01*
X128460687Y-100114332D01*
X128460313Y-100543784D01*
X128624311Y-100940689D01*
X128927714Y-101244622D01*
X129324332Y-101409313D01*
X129413000Y-101409390D01*
X129413000Y-105915358D01*
X129410353Y-105918000D01*
X126860040Y-105918000D01*
X126860040Y-105562400D01*
X126813063Y-105320277D01*
X126673273Y-105107473D01*
X126462240Y-104965023D01*
X126212600Y-104914960D01*
X124465000Y-104914960D01*
X124465000Y-103365040D01*
X126212600Y-103365040D01*
X126454723Y-103318063D01*
X126667527Y-103178273D01*
X126809977Y-102967240D01*
X126860040Y-102717600D01*
X126860040Y-100482400D01*
X126847600Y-100418283D01*
X126847600Y-97763910D01*
X126847600Y-97511291D01*
X126847600Y-96805750D01*
X126688850Y-96647000D01*
X125222000Y-96647000D01*
X125222000Y-98113850D01*
X125380750Y-98272600D01*
X126338909Y-98272600D01*
X126572298Y-98175927D01*
X126750927Y-97997299D01*
X126847600Y-97763910D01*
X126847600Y-100418283D01*
X126813063Y-100240277D01*
X126673273Y-100027473D01*
X126462240Y-99885023D01*
X126212600Y-99834960D01*
X124465000Y-99834960D01*
X124465000Y-98272600D01*
X124809250Y-98272600D01*
X124968000Y-98113850D01*
X124968000Y-96647000D01*
X124948000Y-96647000D01*
X124948000Y-96393000D01*
X124968000Y-96393000D01*
X124968000Y-96373000D01*
X125222000Y-96373000D01*
X125222000Y-96393000D01*
X126688850Y-96393000D01*
X126847600Y-96234250D01*
X126847600Y-95890000D01*
X151125000Y-95890000D01*
X151125000Y-125234960D01*
X151125000Y-125234960D01*
G37*
X151125000Y-125234960D02*
X149377400Y-125234960D01*
X149135277Y-125281937D01*
X148922473Y-125421727D01*
X148780023Y-125632760D01*
X148729960Y-125882400D01*
X148729960Y-127630000D01*
X147180040Y-127630000D01*
X147180040Y-125882400D01*
X147133063Y-125640277D01*
X147129687Y-125635137D01*
X147129687Y-103926216D01*
X146965689Y-103529311D01*
X146662286Y-103225378D01*
X146265668Y-103060687D01*
X145836216Y-103060313D01*
X145439311Y-103224311D01*
X145285353Y-103378000D01*
X142875000Y-103378000D01*
X142583395Y-103436004D01*
X142336184Y-103601185D01*
X138228420Y-107708948D01*
X138075689Y-107339311D01*
X137772286Y-107035378D01*
X137604687Y-106965784D01*
X137604687Y-98846216D01*
X137440689Y-98449311D01*
X137137286Y-98145378D01*
X136740668Y-97980687D01*
X136311216Y-97980313D01*
X136011700Y-98104070D01*
X135699499Y-97791868D01*
X135699687Y-97576216D01*
X135535689Y-97179311D01*
X135232286Y-96875378D01*
X134835668Y-96710687D01*
X134406216Y-96710313D01*
X134009311Y-96874311D01*
X133705378Y-97177714D01*
X133540687Y-97574332D01*
X133540313Y-98003784D01*
X133704311Y-98400689D01*
X134007714Y-98704622D01*
X134404332Y-98869313D01*
X134621872Y-98869502D01*
X135351184Y-99598815D01*
X135351185Y-99598815D01*
X135598395Y-99763996D01*
X135728237Y-99789823D01*
X135912714Y-99974622D01*
X136309332Y-100139313D01*
X136738784Y-100139687D01*
X137135689Y-99975689D01*
X137439622Y-99672286D01*
X137604313Y-99275668D01*
X137604687Y-98846216D01*
X137604687Y-106965784D01*
X137375668Y-106870687D01*
X136946216Y-106870313D01*
X136549311Y-107034311D01*
X136245378Y-107337714D01*
X136080687Y-107734332D01*
X136080497Y-107951872D01*
X130271185Y-113761185D01*
X130106004Y-114008395D01*
X130048000Y-114300000D01*
X130048000Y-118300388D01*
X129961216Y-118300313D01*
X129564311Y-118464311D01*
X129260378Y-118767714D01*
X129095687Y-119164332D01*
X129095313Y-119593784D01*
X129259311Y-119990689D01*
X129562714Y-120294622D01*
X129959332Y-120459313D01*
X130388784Y-120459687D01*
X130785689Y-120295689D01*
X131089622Y-119992286D01*
X131254313Y-119595668D01*
X131254502Y-119378128D01*
X131348815Y-119283815D01*
X131348816Y-119283815D01*
X131447834Y-119135623D01*
X131513996Y-119036605D01*
X131513996Y-119036604D01*
X131572000Y-118745000D01*
X131572000Y-115892925D01*
X131864332Y-116014313D01*
X132293784Y-116014687D01*
X132690689Y-115850689D01*
X132994622Y-115547286D01*
X133159313Y-115150668D01*
X133159502Y-114933127D01*
X143190630Y-104902000D01*
X145285358Y-104902000D01*
X145437714Y-105054622D01*
X145834332Y-105219313D01*
X146263784Y-105219687D01*
X146660689Y-105055689D01*
X146964622Y-104752286D01*
X147129313Y-104355668D01*
X147129687Y-103926216D01*
X147129687Y-125635137D01*
X146993273Y-125427473D01*
X146782240Y-125285023D01*
X146532600Y-125234960D01*
X146177000Y-125234960D01*
X146177000Y-111760000D01*
X146118996Y-111468395D01*
X145953815Y-111221185D01*
X145953815Y-111221184D01*
X143954499Y-109221868D01*
X143954687Y-109006216D01*
X143790689Y-108609311D01*
X143487286Y-108305378D01*
X143090668Y-108140687D01*
X142661216Y-108140313D01*
X142264311Y-108304311D01*
X141960378Y-108607714D01*
X141795687Y-109004332D01*
X141795313Y-109433784D01*
X141959311Y-109830689D01*
X142262714Y-110134622D01*
X142659332Y-110299313D01*
X142876872Y-110299502D01*
X144653000Y-112075630D01*
X144653000Y-125234960D01*
X144297400Y-125234960D01*
X144055277Y-125281937D01*
X143842473Y-125421727D01*
X143700023Y-125632760D01*
X143649960Y-125882400D01*
X143649960Y-127630000D01*
X142100040Y-127630000D01*
X142100040Y-125882400D01*
X142053063Y-125640277D01*
X141913273Y-125427473D01*
X141702240Y-125285023D01*
X141452600Y-125234960D01*
X139217400Y-125234960D01*
X138975277Y-125281937D01*
X138762473Y-125421727D01*
X138620023Y-125632760D01*
X138569960Y-125882400D01*
X138569960Y-127630000D01*
X137020040Y-127630000D01*
X137020040Y-125882400D01*
X136973063Y-125640277D01*
X136833273Y-125427473D01*
X136622240Y-125285023D01*
X136372600Y-125234960D01*
X134137400Y-125234960D01*
X133895277Y-125281937D01*
X133682473Y-125421727D01*
X133540023Y-125632760D01*
X133489960Y-125882400D01*
X133489960Y-127630000D01*
X131940040Y-127630000D01*
X131940040Y-125882400D01*
X131893063Y-125640277D01*
X131753273Y-125427473D01*
X131542240Y-125285023D01*
X131292600Y-125234960D01*
X129057400Y-125234960D01*
X128815277Y-125281937D01*
X128602473Y-125421727D01*
X128460023Y-125632760D01*
X128409960Y-125882400D01*
X128409960Y-127630000D01*
X126860040Y-127630000D01*
X126860040Y-125882400D01*
X126813063Y-125640277D01*
X126673273Y-125427473D01*
X126462240Y-125285023D01*
X126212600Y-125234960D01*
X124465000Y-125234960D01*
X124465000Y-123685040D01*
X126212600Y-123685040D01*
X126454723Y-123638063D01*
X126667527Y-123498273D01*
X126809977Y-123287240D01*
X126860040Y-123037600D01*
X126860040Y-120802400D01*
X126813063Y-120560277D01*
X126673273Y-120347473D01*
X126462240Y-120205023D01*
X126212600Y-120154960D01*
X124465000Y-120154960D01*
X124465000Y-118605040D01*
X126212600Y-118605040D01*
X126454723Y-118558063D01*
X126667527Y-118418273D01*
X126809977Y-118207240D01*
X126860040Y-117957600D01*
X126860040Y-115722400D01*
X126813063Y-115480277D01*
X126673273Y-115267473D01*
X126462240Y-115125023D01*
X126212600Y-115074960D01*
X124465000Y-115074960D01*
X124465000Y-113525040D01*
X126212600Y-113525040D01*
X126454723Y-113478063D01*
X126667527Y-113338273D01*
X126809977Y-113127240D01*
X126860040Y-112877600D01*
X126860040Y-110642400D01*
X126813063Y-110400277D01*
X126673273Y-110187473D01*
X126462240Y-110045023D01*
X126212600Y-109994960D01*
X124465000Y-109994960D01*
X124465000Y-108445040D01*
X126212600Y-108445040D01*
X126454723Y-108398063D01*
X126667527Y-108258273D01*
X126809977Y-108047240D01*
X126860040Y-107797600D01*
X126860040Y-107442000D01*
X129410358Y-107442000D01*
X129562714Y-107594622D01*
X129959332Y-107759313D01*
X130388784Y-107759687D01*
X130785689Y-107595689D01*
X131089622Y-107292286D01*
X131254313Y-106895668D01*
X131254687Y-106466216D01*
X131090689Y-106069311D01*
X130937000Y-105915353D01*
X130937000Y-100965000D01*
X130878996Y-100673396D01*
X130878996Y-100673395D01*
X130812834Y-100574376D01*
X130713816Y-100426185D01*
X130619499Y-100331868D01*
X130619687Y-100116216D01*
X130455689Y-99719311D01*
X130152286Y-99415378D01*
X129755668Y-99250687D01*
X129326216Y-99250313D01*
X128929311Y-99414311D01*
X128625378Y-99717714D01*
X128460687Y-100114332D01*
X128460313Y-100543784D01*
X128624311Y-100940689D01*
X128927714Y-101244622D01*
X129324332Y-101409313D01*
X129413000Y-101409390D01*
X129413000Y-105915358D01*
X129410353Y-105918000D01*
X126860040Y-105918000D01*
X126860040Y-105562400D01*
X126813063Y-105320277D01*
X126673273Y-105107473D01*
X126462240Y-104965023D01*
X126212600Y-104914960D01*
X124465000Y-104914960D01*
X124465000Y-103365040D01*
X126212600Y-103365040D01*
X126454723Y-103318063D01*
X126667527Y-103178273D01*
X126809977Y-102967240D01*
X126860040Y-102717600D01*
X126860040Y-100482400D01*
X126847600Y-100418283D01*
X126847600Y-97763910D01*
X126847600Y-97511291D01*
X126847600Y-96805750D01*
X126688850Y-96647000D01*
X125222000Y-96647000D01*
X125222000Y-98113850D01*
X125380750Y-98272600D01*
X126338909Y-98272600D01*
X126572298Y-98175927D01*
X126750927Y-97997299D01*
X126847600Y-97763910D01*
X126847600Y-100418283D01*
X126813063Y-100240277D01*
X126673273Y-100027473D01*
X126462240Y-99885023D01*
X126212600Y-99834960D01*
X124465000Y-99834960D01*
X124465000Y-98272600D01*
X124809250Y-98272600D01*
X124968000Y-98113850D01*
X124968000Y-96647000D01*
X124948000Y-96647000D01*
X124948000Y-96393000D01*
X124968000Y-96393000D01*
X124968000Y-96373000D01*
X125222000Y-96373000D01*
X125222000Y-96393000D01*
X126688850Y-96393000D01*
X126847600Y-96234250D01*
X126847600Y-95890000D01*
X151125000Y-95890000D01*
X151125000Y-125234960D01*
M02*
