G04 #@! TF.FileFunction,Legend,Top*
%FSLAX46Y46*%
G04 Gerber Fmt 4.6, Leading zero omitted, Abs format (unit mm)*
G04 Created by KiCad (PCBNEW 0.201412131231+5320~19~ubuntu14.04.1-product) date Mon 15 Dec 2014 13:13:02 AEDT*
%MOMM*%
G01*
G04 APERTURE LIST*
%ADD10C,0.100000*%
%ADD11C,0.150000*%
%ADD12C,0.050000*%
G04 APERTURE END LIST*
D10*
D11*
X126444524Y-122642381D02*
X126444524Y-123451905D01*
X126492143Y-123547143D01*
X126539762Y-123594762D01*
X126635000Y-123642381D01*
X126825477Y-123642381D01*
X126920715Y-123594762D01*
X126968334Y-123547143D01*
X127015953Y-123451905D01*
X127015953Y-122642381D01*
X127492143Y-123642381D02*
X127492143Y-122642381D01*
X127873096Y-122642381D01*
X127968334Y-122690000D01*
X128015953Y-122737619D01*
X128063572Y-122832857D01*
X128063572Y-122975714D01*
X128015953Y-123070952D01*
X127968334Y-123118571D01*
X127873096Y-123166190D01*
X127492143Y-123166190D01*
X128968334Y-123642381D02*
X128492143Y-123642381D01*
X128492143Y-122642381D01*
X139787381Y-124277381D02*
X139454047Y-123801190D01*
X139215952Y-124277381D02*
X139215952Y-123277381D01*
X139596905Y-123277381D01*
X139692143Y-123325000D01*
X139739762Y-123372619D01*
X139787381Y-123467857D01*
X139787381Y-123610714D01*
X139739762Y-123705952D01*
X139692143Y-123753571D01*
X139596905Y-123801190D01*
X139215952Y-123801190D01*
X140168333Y-124229762D02*
X140311190Y-124277381D01*
X140549286Y-124277381D01*
X140644524Y-124229762D01*
X140692143Y-124182143D01*
X140739762Y-124086905D01*
X140739762Y-123991667D01*
X140692143Y-123896429D01*
X140644524Y-123848810D01*
X140549286Y-123801190D01*
X140358809Y-123753571D01*
X140263571Y-123705952D01*
X140215952Y-123658333D01*
X140168333Y-123563095D01*
X140168333Y-123467857D01*
X140215952Y-123372619D01*
X140263571Y-123325000D01*
X140358809Y-123277381D01*
X140596905Y-123277381D01*
X140739762Y-123325000D01*
X141025476Y-123277381D02*
X141596905Y-123277381D01*
X141311190Y-124277381D02*
X141311190Y-123277381D01*
X149725380Y-123205240D02*
X150423880Y-123205240D01*
X148724620Y-123205240D02*
X148026120Y-123205240D01*
X149725380Y-121904760D02*
X150423880Y-121904760D01*
X148026120Y-121904760D02*
X148724620Y-121904760D01*
X150423880Y-121920000D02*
X150423880Y-123190000D01*
X148026120Y-123190000D02*
X148026120Y-121920000D01*
X137144760Y-101465380D02*
X137144760Y-102163880D01*
X137144760Y-100464620D02*
X137144760Y-99766120D01*
X138445240Y-101465380D02*
X138445240Y-102163880D01*
X138445240Y-99766120D02*
X138445240Y-100464620D01*
X138430000Y-102163880D02*
X137160000Y-102163880D01*
X137160000Y-99766120D02*
X138430000Y-99766120D01*
X145600420Y-109405420D02*
X146499580Y-109405420D01*
X146499580Y-109405420D02*
X146499580Y-109006640D01*
X145600420Y-109006640D02*
X146499580Y-109006640D01*
X145600420Y-109405420D02*
X145600420Y-109006640D01*
X145600420Y-110703360D02*
X146499580Y-110703360D01*
X146499580Y-110703360D02*
X146499580Y-110304580D01*
X145600420Y-110304580D02*
X146499580Y-110304580D01*
X145600420Y-110703360D02*
X145600420Y-110304580D01*
X145600420Y-109855000D02*
X145750280Y-109855000D01*
X145750280Y-109855000D02*
X145750280Y-109555280D01*
X145600420Y-109555280D02*
X145750280Y-109555280D01*
X145600420Y-109855000D02*
X145600420Y-109555280D01*
X146349720Y-109855000D02*
X146499580Y-109855000D01*
X146499580Y-109855000D02*
X146499580Y-109555280D01*
X146349720Y-109555280D02*
X146499580Y-109555280D01*
X146349720Y-109855000D02*
X146349720Y-109555280D01*
X145900140Y-109855000D02*
X146199860Y-109855000D01*
X146199860Y-109855000D02*
X146199860Y-109555280D01*
X145900140Y-109555280D02*
X146199860Y-109555280D01*
X145900140Y-109855000D02*
X145900140Y-109555280D01*
X145651220Y-109405420D02*
X145651220Y-110304580D01*
X146448780Y-109405420D02*
X146448780Y-110304580D01*
X149845000Y-114995000D02*
X149845000Y-118295000D01*
X143145000Y-114995000D02*
X143145000Y-118295000D01*
X143145000Y-118295000D02*
X149845000Y-118295000D01*
X143145000Y-114995000D02*
X149845000Y-114995000D01*
X123825000Y-100330000D02*
X123825000Y-102870000D01*
X123825000Y-102870000D02*
X126365000Y-102870000D01*
X126365000Y-102870000D02*
X126365000Y-100330000D01*
X126365000Y-100330000D02*
X123825000Y-100330000D01*
X149225000Y-125730000D02*
X149225000Y-128270000D01*
X149225000Y-128270000D02*
X151765000Y-128270000D01*
X151765000Y-128270000D02*
X151765000Y-125730000D01*
X151765000Y-125730000D02*
X149225000Y-125730000D01*
X123825000Y-95250000D02*
X123825000Y-97790000D01*
X123825000Y-97790000D02*
X126365000Y-97790000D01*
X126365000Y-97790000D02*
X126365000Y-95250000D01*
X126365000Y-95250000D02*
X123825000Y-95250000D01*
X128905000Y-125730000D02*
X128905000Y-128270000D01*
X128905000Y-128270000D02*
X131445000Y-128270000D01*
X131445000Y-128270000D02*
X131445000Y-125730000D01*
X131445000Y-125730000D02*
X128905000Y-125730000D01*
X133985000Y-125730000D02*
X133985000Y-128270000D01*
X133985000Y-128270000D02*
X136525000Y-128270000D01*
X136525000Y-128270000D02*
X136525000Y-125730000D01*
X136525000Y-125730000D02*
X133985000Y-125730000D01*
X139065000Y-125730000D02*
X139065000Y-128270000D01*
X139065000Y-128270000D02*
X141605000Y-128270000D01*
X141605000Y-128270000D02*
X141605000Y-125730000D01*
X141605000Y-125730000D02*
X139065000Y-125730000D01*
X123825000Y-115570000D02*
X123825000Y-118110000D01*
X123825000Y-118110000D02*
X126365000Y-118110000D01*
X126365000Y-118110000D02*
X126365000Y-115570000D01*
X126365000Y-115570000D02*
X123825000Y-115570000D01*
X123825000Y-105410000D02*
X123825000Y-107950000D01*
X123825000Y-107950000D02*
X126365000Y-107950000D01*
X126365000Y-107950000D02*
X126365000Y-105410000D01*
X126365000Y-105410000D02*
X123825000Y-105410000D01*
X123825000Y-110490000D02*
X123825000Y-113030000D01*
X123825000Y-113030000D02*
X126365000Y-113030000D01*
X126365000Y-113030000D02*
X126365000Y-110490000D01*
X126365000Y-110490000D02*
X123825000Y-110490000D01*
X123825000Y-125730000D02*
X123825000Y-128270000D01*
X123825000Y-128270000D02*
X126365000Y-128270000D01*
X126365000Y-128270000D02*
X126365000Y-125730000D01*
X126365000Y-125730000D02*
X123825000Y-125730000D01*
X123825000Y-120650000D02*
X123825000Y-123190000D01*
X123825000Y-123190000D02*
X126365000Y-123190000D01*
X126365000Y-123190000D02*
X126365000Y-120650000D01*
X126365000Y-120650000D02*
X123825000Y-120650000D01*
X144145000Y-125730000D02*
X144145000Y-128270000D01*
X144145000Y-128270000D02*
X146685000Y-128270000D01*
X146685000Y-128270000D02*
X146685000Y-125730000D01*
X146685000Y-125730000D02*
X144145000Y-125730000D01*
X140295000Y-101465000D02*
X140295000Y-100465000D01*
X141645000Y-100465000D02*
X141645000Y-101465000D01*
X142835000Y-101465000D02*
X142835000Y-100465000D01*
X144185000Y-100465000D02*
X144185000Y-101465000D01*
X145280000Y-106720000D02*
X144280000Y-106720000D01*
X144280000Y-105370000D02*
X145280000Y-105370000D01*
X128905000Y-104775000D02*
X128905000Y-122225000D01*
X128905000Y-122225000D02*
X141065000Y-122225000D01*
X141065000Y-122225000D02*
X141065000Y-104775000D01*
X128905000Y-104775000D02*
X141065000Y-104775000D01*
D12*
X130830000Y-97425000D02*
X130830000Y-99425000D01*
X133330000Y-97425000D02*
X133330000Y-99425000D01*
X130830000Y-97425000D02*
X133330000Y-97425000D01*
X130830000Y-99425000D02*
X133330000Y-99425000D01*
D11*
X143867381Y-123007381D02*
X143295952Y-123007381D01*
X143581666Y-123007381D02*
X143581666Y-122007381D01*
X143486428Y-122150238D01*
X143391190Y-122245476D01*
X143295952Y-122293095D01*
X144486428Y-122007381D02*
X144581667Y-122007381D01*
X144676905Y-122055000D01*
X144724524Y-122102619D01*
X144772143Y-122197857D01*
X144819762Y-122388333D01*
X144819762Y-122626429D01*
X144772143Y-122816905D01*
X144724524Y-122912143D01*
X144676905Y-122959762D01*
X144581667Y-123007381D01*
X144486428Y-123007381D01*
X144391190Y-122959762D01*
X144343571Y-122912143D01*
X144295952Y-122816905D01*
X144248333Y-122626429D01*
X144248333Y-122388333D01*
X144295952Y-122197857D01*
X144343571Y-122102619D01*
X144391190Y-122055000D01*
X144486428Y-122007381D01*
X145438809Y-122007381D02*
X145534048Y-122007381D01*
X145629286Y-122055000D01*
X145676905Y-122102619D01*
X145724524Y-122197857D01*
X145772143Y-122388333D01*
X145772143Y-122626429D01*
X145724524Y-122816905D01*
X145676905Y-122912143D01*
X145629286Y-122959762D01*
X145534048Y-123007381D01*
X145438809Y-123007381D01*
X145343571Y-122959762D01*
X145295952Y-122912143D01*
X145248333Y-122816905D01*
X145200714Y-122626429D01*
X145200714Y-122388333D01*
X145248333Y-122197857D01*
X145295952Y-122102619D01*
X145343571Y-122055000D01*
X145438809Y-122007381D01*
X146200714Y-122340714D02*
X146200714Y-123007381D01*
X146200714Y-122435952D02*
X146248333Y-122388333D01*
X146343571Y-122340714D01*
X146486429Y-122340714D01*
X146581667Y-122388333D01*
X146629286Y-122483571D01*
X146629286Y-123007381D01*
X147438810Y-122483571D02*
X147105476Y-122483571D01*
X147105476Y-123007381D02*
X147105476Y-122007381D01*
X147581667Y-122007381D01*
X138247381Y-98861428D02*
X138247381Y-99432857D01*
X138247381Y-99147143D02*
X137247381Y-99147143D01*
X137390238Y-99242381D01*
X137485476Y-99337619D01*
X137533095Y-99432857D01*
X137247381Y-98242381D02*
X137247381Y-98147142D01*
X137295000Y-98051904D01*
X137342619Y-98004285D01*
X137437857Y-97956666D01*
X137628333Y-97909047D01*
X137866429Y-97909047D01*
X138056905Y-97956666D01*
X138152143Y-98004285D01*
X138199762Y-98051904D01*
X138247381Y-98147142D01*
X138247381Y-98242381D01*
X138199762Y-98337619D01*
X138152143Y-98385238D01*
X138056905Y-98432857D01*
X137866429Y-98480476D01*
X137628333Y-98480476D01*
X137437857Y-98432857D01*
X137342619Y-98385238D01*
X137295000Y-98337619D01*
X137247381Y-98242381D01*
X137580714Y-97051904D02*
X138247381Y-97051904D01*
X137580714Y-97480476D02*
X138104524Y-97480476D01*
X138199762Y-97432857D01*
X138247381Y-97337619D01*
X138247381Y-97194761D01*
X138199762Y-97099523D01*
X138152143Y-97051904D01*
X137723571Y-96242380D02*
X137723571Y-96575714D01*
X138247381Y-96575714D02*
X137247381Y-96575714D01*
X137247381Y-96099523D01*
X144549762Y-112331191D02*
X144597381Y-112188334D01*
X144597381Y-111950238D01*
X144549762Y-111855000D01*
X144502143Y-111807381D01*
X144406905Y-111759762D01*
X144311667Y-111759762D01*
X144216429Y-111807381D01*
X144168810Y-111855000D01*
X144121190Y-111950238D01*
X144073571Y-112140715D01*
X144025952Y-112235953D01*
X143978333Y-112283572D01*
X143883095Y-112331191D01*
X143787857Y-112331191D01*
X143692619Y-112283572D01*
X143645000Y-112235953D01*
X143597381Y-112140715D01*
X143597381Y-111902619D01*
X143645000Y-111759762D01*
X143597381Y-111474048D02*
X143597381Y-110902619D01*
X144597381Y-111188334D02*
X143597381Y-111188334D01*
X144311667Y-110616905D02*
X144311667Y-110140714D01*
X144597381Y-110712143D02*
X143597381Y-110378810D01*
X144597381Y-110045476D01*
X143597381Y-109855000D02*
X143597381Y-109283571D01*
X144597381Y-109569286D02*
X143597381Y-109569286D01*
X143597381Y-108950238D02*
X144406905Y-108950238D01*
X144502143Y-108902619D01*
X144549762Y-108855000D01*
X144597381Y-108759762D01*
X144597381Y-108569285D01*
X144549762Y-108474047D01*
X144502143Y-108426428D01*
X144406905Y-108378809D01*
X143597381Y-108378809D01*
X144549762Y-107950238D02*
X144597381Y-107807381D01*
X144597381Y-107569285D01*
X144549762Y-107474047D01*
X144502143Y-107426428D01*
X144406905Y-107378809D01*
X144311667Y-107378809D01*
X144216429Y-107426428D01*
X144168810Y-107474047D01*
X144121190Y-107569285D01*
X144073571Y-107759762D01*
X144025952Y-107855000D01*
X143978333Y-107902619D01*
X143883095Y-107950238D01*
X143787857Y-107950238D01*
X143692619Y-107902619D01*
X143645000Y-107855000D01*
X143597381Y-107759762D01*
X143597381Y-107521666D01*
X143645000Y-107378809D01*
X146435001Y-117518571D02*
X145720715Y-117518571D01*
X145720715Y-116018571D01*
X147720715Y-117518571D02*
X146863572Y-117518571D01*
X147292144Y-117518571D02*
X147292144Y-116018571D01*
X147149287Y-116232857D01*
X147006429Y-116375714D01*
X146863572Y-116447143D01*
X123761667Y-99147381D02*
X124095000Y-100147381D01*
X124428334Y-99147381D01*
X125333096Y-100052143D02*
X125285477Y-100099762D01*
X125142620Y-100147381D01*
X125047382Y-100147381D01*
X124904524Y-100099762D01*
X124809286Y-100004524D01*
X124761667Y-99909286D01*
X124714048Y-99718810D01*
X124714048Y-99575952D01*
X124761667Y-99385476D01*
X124809286Y-99290238D01*
X124904524Y-99195000D01*
X125047382Y-99147381D01*
X125142620Y-99147381D01*
X125285477Y-99195000D01*
X125333096Y-99242619D01*
X126333096Y-100052143D02*
X126285477Y-100099762D01*
X126142620Y-100147381D01*
X126047382Y-100147381D01*
X125904524Y-100099762D01*
X125809286Y-100004524D01*
X125761667Y-99909286D01*
X125714048Y-99718810D01*
X125714048Y-99575952D01*
X125761667Y-99385476D01*
X125809286Y-99290238D01*
X125904524Y-99195000D01*
X126047382Y-99147381D01*
X126142620Y-99147381D01*
X126285477Y-99195000D01*
X126333096Y-99242619D01*
X148740953Y-125023571D02*
X148883810Y-125071190D01*
X148931429Y-125118810D01*
X148979048Y-125214048D01*
X148979048Y-125356905D01*
X148931429Y-125452143D01*
X148883810Y-125499762D01*
X148788572Y-125547381D01*
X148407619Y-125547381D01*
X148407619Y-124547381D01*
X148740953Y-124547381D01*
X148836191Y-124595000D01*
X148883810Y-124642619D01*
X148931429Y-124737857D01*
X148931429Y-124833095D01*
X148883810Y-124928333D01*
X148836191Y-124975952D01*
X148740953Y-125023571D01*
X148407619Y-125023571D01*
X149360000Y-125261667D02*
X149836191Y-125261667D01*
X149264762Y-125547381D02*
X149598095Y-124547381D01*
X149931429Y-125547381D01*
X150121905Y-124547381D02*
X150693334Y-124547381D01*
X150407619Y-125547381D02*
X150407619Y-124547381D01*
X150883810Y-124547381D02*
X151455239Y-124547381D01*
X151169524Y-125547381D02*
X151169524Y-124547381D01*
X126500000Y-97281904D02*
X126452381Y-97377142D01*
X126452381Y-97519999D01*
X126500000Y-97662857D01*
X126595238Y-97758095D01*
X126690476Y-97805714D01*
X126880952Y-97853333D01*
X127023810Y-97853333D01*
X127214286Y-97805714D01*
X127309524Y-97758095D01*
X127404762Y-97662857D01*
X127452381Y-97519999D01*
X127452381Y-97424761D01*
X127404762Y-97281904D01*
X127357143Y-97234285D01*
X127023810Y-97234285D01*
X127023810Y-97424761D01*
X127452381Y-96805714D02*
X126452381Y-96805714D01*
X127452381Y-96234285D01*
X126452381Y-96234285D01*
X127452381Y-95758095D02*
X126452381Y-95758095D01*
X126452381Y-95520000D01*
X126500000Y-95377142D01*
X126595238Y-95281904D01*
X126690476Y-95234285D01*
X126880952Y-95186666D01*
X127023810Y-95186666D01*
X127214286Y-95234285D01*
X127309524Y-95281904D01*
X127404762Y-95377142D01*
X127452381Y-95520000D01*
X127452381Y-95758095D01*
X128413095Y-124547381D02*
X128413095Y-125356905D01*
X128460714Y-125452143D01*
X128508333Y-125499762D01*
X128603571Y-125547381D01*
X128794048Y-125547381D01*
X128889286Y-125499762D01*
X128936905Y-125452143D01*
X128984524Y-125356905D01*
X128984524Y-124547381D01*
X130032143Y-125547381D02*
X129698809Y-125071190D01*
X129460714Y-125547381D02*
X129460714Y-124547381D01*
X129841667Y-124547381D01*
X129936905Y-124595000D01*
X129984524Y-124642619D01*
X130032143Y-124737857D01*
X130032143Y-124880714D01*
X129984524Y-124975952D01*
X129936905Y-125023571D01*
X129841667Y-125071190D01*
X129460714Y-125071190D01*
X130365476Y-124547381D02*
X131032143Y-125547381D01*
X131032143Y-124547381D02*
X130365476Y-125547381D01*
X131413095Y-125547381D02*
X131413095Y-124547381D01*
X131651190Y-124547381D01*
X131794048Y-124595000D01*
X131889286Y-124690238D01*
X131936905Y-124785476D01*
X131984524Y-124975952D01*
X131984524Y-125118810D01*
X131936905Y-125309286D01*
X131889286Y-125404524D01*
X131794048Y-125499762D01*
X131651190Y-125547381D01*
X131413095Y-125547381D01*
X133612143Y-124547381D02*
X133612143Y-125356905D01*
X133659762Y-125452143D01*
X133707381Y-125499762D01*
X133802619Y-125547381D01*
X133993096Y-125547381D01*
X134088334Y-125499762D01*
X134135953Y-125452143D01*
X134183572Y-125356905D01*
X134183572Y-124547381D01*
X134516905Y-124547381D02*
X135088334Y-124547381D01*
X134802619Y-125547381D02*
X134802619Y-124547381D01*
X135326429Y-124547381D02*
X135993096Y-125547381D01*
X135993096Y-124547381D02*
X135326429Y-125547381D01*
X136374048Y-125547381D02*
X136374048Y-124547381D01*
X136612143Y-124547381D01*
X136755001Y-124595000D01*
X136850239Y-124690238D01*
X136897858Y-124785476D01*
X136945477Y-124975952D01*
X136945477Y-125118810D01*
X136897858Y-125309286D01*
X136850239Y-125404524D01*
X136755001Y-125499762D01*
X136612143Y-125547381D01*
X136374048Y-125547381D01*
X139644524Y-124595000D02*
X139549286Y-124547381D01*
X139406429Y-124547381D01*
X139263571Y-124595000D01*
X139168333Y-124690238D01*
X139120714Y-124785476D01*
X139073095Y-124975952D01*
X139073095Y-125118810D01*
X139120714Y-125309286D01*
X139168333Y-125404524D01*
X139263571Y-125499762D01*
X139406429Y-125547381D01*
X139501667Y-125547381D01*
X139644524Y-125499762D01*
X139692143Y-125452143D01*
X139692143Y-125118810D01*
X139501667Y-125118810D01*
X140644524Y-125547381D02*
X140073095Y-125547381D01*
X140358809Y-125547381D02*
X140358809Y-124547381D01*
X140263571Y-124690238D01*
X140168333Y-124785476D01*
X140073095Y-124833095D01*
X141215952Y-124975952D02*
X141120714Y-124928333D01*
X141073095Y-124880714D01*
X141025476Y-124785476D01*
X141025476Y-124737857D01*
X141073095Y-124642619D01*
X141120714Y-124595000D01*
X141215952Y-124547381D01*
X141406429Y-124547381D01*
X141501667Y-124595000D01*
X141549286Y-124642619D01*
X141596905Y-124737857D01*
X141596905Y-124785476D01*
X141549286Y-124880714D01*
X141501667Y-124928333D01*
X141406429Y-124975952D01*
X141215952Y-124975952D01*
X141120714Y-125023571D01*
X141073095Y-125071190D01*
X141025476Y-125166429D01*
X141025476Y-125356905D01*
X141073095Y-125452143D01*
X141120714Y-125499762D01*
X141215952Y-125547381D01*
X141406429Y-125547381D01*
X141501667Y-125499762D01*
X141549286Y-125452143D01*
X141596905Y-125356905D01*
X141596905Y-125166429D01*
X141549286Y-125071190D01*
X141501667Y-125023571D01*
X141406429Y-124975952D01*
X123880714Y-115339762D02*
X124023571Y-115387381D01*
X124261667Y-115387381D01*
X124356905Y-115339762D01*
X124404524Y-115292143D01*
X124452143Y-115196905D01*
X124452143Y-115101667D01*
X124404524Y-115006429D01*
X124356905Y-114958810D01*
X124261667Y-114911190D01*
X124071190Y-114863571D01*
X123975952Y-114815952D01*
X123928333Y-114768333D01*
X123880714Y-114673095D01*
X123880714Y-114577857D01*
X123928333Y-114482619D01*
X123975952Y-114435000D01*
X124071190Y-114387381D01*
X124309286Y-114387381D01*
X124452143Y-114435000D01*
X124880714Y-115387381D02*
X124880714Y-114387381D01*
X125118809Y-114387381D01*
X125261667Y-114435000D01*
X125356905Y-114530238D01*
X125404524Y-114625476D01*
X125452143Y-114815952D01*
X125452143Y-114958810D01*
X125404524Y-115149286D01*
X125356905Y-115244524D01*
X125261667Y-115339762D01*
X125118809Y-115387381D01*
X124880714Y-115387381D01*
X125833095Y-115101667D02*
X126309286Y-115101667D01*
X125737857Y-115387381D02*
X126071190Y-114387381D01*
X126404524Y-115387381D01*
X123904524Y-105179762D02*
X124047381Y-105227381D01*
X124285477Y-105227381D01*
X124380715Y-105179762D01*
X124428334Y-105132143D01*
X124475953Y-105036905D01*
X124475953Y-104941667D01*
X124428334Y-104846429D01*
X124380715Y-104798810D01*
X124285477Y-104751190D01*
X124095000Y-104703571D01*
X123999762Y-104655952D01*
X123952143Y-104608333D01*
X123904524Y-104513095D01*
X123904524Y-104417857D01*
X123952143Y-104322619D01*
X123999762Y-104275000D01*
X124095000Y-104227381D01*
X124333096Y-104227381D01*
X124475953Y-104275000D01*
X125475953Y-105132143D02*
X125428334Y-105179762D01*
X125285477Y-105227381D01*
X125190239Y-105227381D01*
X125047381Y-105179762D01*
X124952143Y-105084524D01*
X124904524Y-104989286D01*
X124856905Y-104798810D01*
X124856905Y-104655952D01*
X124904524Y-104465476D01*
X124952143Y-104370238D01*
X125047381Y-104275000D01*
X125190239Y-104227381D01*
X125285477Y-104227381D01*
X125428334Y-104275000D01*
X125475953Y-104322619D01*
X126380715Y-105227381D02*
X125904524Y-105227381D01*
X125904524Y-104227381D01*
X124404524Y-109355000D02*
X124309286Y-109307381D01*
X124166429Y-109307381D01*
X124023571Y-109355000D01*
X123928333Y-109450238D01*
X123880714Y-109545476D01*
X123833095Y-109735952D01*
X123833095Y-109878810D01*
X123880714Y-110069286D01*
X123928333Y-110164524D01*
X124023571Y-110259762D01*
X124166429Y-110307381D01*
X124261667Y-110307381D01*
X124404524Y-110259762D01*
X124452143Y-110212143D01*
X124452143Y-109878810D01*
X124261667Y-109878810D01*
X125404524Y-110307381D02*
X124833095Y-110307381D01*
X125118809Y-110307381D02*
X125118809Y-109307381D01*
X125023571Y-109450238D01*
X124928333Y-109545476D01*
X124833095Y-109593095D01*
X125785476Y-109402619D02*
X125833095Y-109355000D01*
X125928333Y-109307381D01*
X126166429Y-109307381D01*
X126261667Y-109355000D01*
X126309286Y-109402619D01*
X126356905Y-109497857D01*
X126356905Y-109593095D01*
X126309286Y-109735952D01*
X125737857Y-110307381D01*
X126356905Y-110307381D01*
X124404524Y-124595000D02*
X124309286Y-124547381D01*
X124166429Y-124547381D01*
X124023571Y-124595000D01*
X123928333Y-124690238D01*
X123880714Y-124785476D01*
X123833095Y-124975952D01*
X123833095Y-125118810D01*
X123880714Y-125309286D01*
X123928333Y-125404524D01*
X124023571Y-125499762D01*
X124166429Y-125547381D01*
X124261667Y-125547381D01*
X124404524Y-125499762D01*
X124452143Y-125452143D01*
X124452143Y-125118810D01*
X124261667Y-125118810D01*
X125404524Y-125547381D02*
X124833095Y-125547381D01*
X125118809Y-125547381D02*
X125118809Y-124547381D01*
X125023571Y-124690238D01*
X124928333Y-124785476D01*
X124833095Y-124833095D01*
X125737857Y-124547381D02*
X126356905Y-124547381D01*
X126023571Y-124928333D01*
X126166429Y-124928333D01*
X126261667Y-124975952D01*
X126309286Y-125023571D01*
X126356905Y-125118810D01*
X126356905Y-125356905D01*
X126309286Y-125452143D01*
X126261667Y-125499762D01*
X126166429Y-125547381D01*
X125880714Y-125547381D01*
X125785476Y-125499762D01*
X125737857Y-125452143D01*
X124880715Y-119515000D02*
X124785477Y-119467381D01*
X124642620Y-119467381D01*
X124499762Y-119515000D01*
X124404524Y-119610238D01*
X124356905Y-119705476D01*
X124309286Y-119895952D01*
X124309286Y-120038810D01*
X124356905Y-120229286D01*
X124404524Y-120324524D01*
X124499762Y-120419762D01*
X124642620Y-120467381D01*
X124737858Y-120467381D01*
X124880715Y-120419762D01*
X124928334Y-120372143D01*
X124928334Y-120038810D01*
X124737858Y-120038810D01*
X125547381Y-119467381D02*
X125642620Y-119467381D01*
X125737858Y-119515000D01*
X125785477Y-119562619D01*
X125833096Y-119657857D01*
X125880715Y-119848333D01*
X125880715Y-120086429D01*
X125833096Y-120276905D01*
X125785477Y-120372143D01*
X125737858Y-120419762D01*
X125642620Y-120467381D01*
X125547381Y-120467381D01*
X125452143Y-120419762D01*
X125404524Y-120372143D01*
X125356905Y-120276905D01*
X125309286Y-120086429D01*
X125309286Y-119848333D01*
X125356905Y-119657857D01*
X125404524Y-119562619D01*
X125452143Y-119515000D01*
X125547381Y-119467381D01*
X144272143Y-125261667D02*
X144748334Y-125261667D01*
X144176905Y-125547381D02*
X144510238Y-124547381D01*
X144843572Y-125547381D01*
X145176905Y-125547381D02*
X145176905Y-124547381D01*
X145748334Y-125547381D01*
X145748334Y-124547381D01*
X146081667Y-124547381D02*
X146653096Y-124547381D01*
X146367381Y-125547381D02*
X146367381Y-124547381D01*
X140755714Y-98083571D02*
X141422381Y-98083571D01*
X140374762Y-98321667D02*
X141089048Y-98559762D01*
X141089048Y-97940714D01*
X141327143Y-97559762D02*
X141374762Y-97512143D01*
X141422381Y-97559762D01*
X141374762Y-97607381D01*
X141327143Y-97559762D01*
X141422381Y-97559762D01*
X140422381Y-97178810D02*
X140422381Y-96512143D01*
X141422381Y-96940715D01*
X141422381Y-96131191D02*
X140422381Y-96131191D01*
X141041429Y-96035953D02*
X141422381Y-95750238D01*
X140755714Y-95750238D02*
X141136667Y-96131191D01*
X143295714Y-98083571D02*
X143962381Y-98083571D01*
X142914762Y-98321667D02*
X143629048Y-98559762D01*
X143629048Y-97940714D01*
X143867143Y-97559762D02*
X143914762Y-97512143D01*
X143962381Y-97559762D01*
X143914762Y-97607381D01*
X143867143Y-97559762D01*
X143962381Y-97559762D01*
X142962381Y-97178810D02*
X142962381Y-96512143D01*
X143962381Y-96940715D01*
X143962381Y-96131191D02*
X142962381Y-96131191D01*
X143581429Y-96035953D02*
X143962381Y-95750238D01*
X143295714Y-95750238D02*
X143676667Y-96131191D01*
X143922858Y-103592381D02*
X143732381Y-103592381D01*
X143637143Y-103640000D01*
X143589524Y-103687619D01*
X143494286Y-103830476D01*
X143446667Y-104020952D01*
X143446667Y-104401905D01*
X143494286Y-104497143D01*
X143541905Y-104544762D01*
X143637143Y-104592381D01*
X143827620Y-104592381D01*
X143922858Y-104544762D01*
X143970477Y-104497143D01*
X144018096Y-104401905D01*
X144018096Y-104163810D01*
X143970477Y-104068571D01*
X143922858Y-104020952D01*
X143827620Y-103973333D01*
X143637143Y-103973333D01*
X143541905Y-104020952D01*
X143494286Y-104068571D01*
X143446667Y-104163810D01*
X144589524Y-104020952D02*
X144494286Y-103973333D01*
X144446667Y-103925714D01*
X144399048Y-103830476D01*
X144399048Y-103782857D01*
X144446667Y-103687619D01*
X144494286Y-103640000D01*
X144589524Y-103592381D01*
X144780001Y-103592381D01*
X144875239Y-103640000D01*
X144922858Y-103687619D01*
X144970477Y-103782857D01*
X144970477Y-103830476D01*
X144922858Y-103925714D01*
X144875239Y-103973333D01*
X144780001Y-104020952D01*
X144589524Y-104020952D01*
X144494286Y-104068571D01*
X144446667Y-104116190D01*
X144399048Y-104211429D01*
X144399048Y-104401905D01*
X144446667Y-104497143D01*
X144494286Y-104544762D01*
X144589524Y-104592381D01*
X144780001Y-104592381D01*
X144875239Y-104544762D01*
X144922858Y-104497143D01*
X144970477Y-104401905D01*
X144970477Y-104211429D01*
X144922858Y-104116190D01*
X144875239Y-104068571D01*
X144780001Y-104020952D01*
X145351429Y-104592381D02*
X145589524Y-104592381D01*
X145589524Y-104401905D01*
X145494286Y-104354286D01*
X145399048Y-104259048D01*
X145351429Y-104116190D01*
X145351429Y-103878095D01*
X145399048Y-103735238D01*
X145494286Y-103640000D01*
X145637143Y-103592381D01*
X145827620Y-103592381D01*
X145970477Y-103640000D01*
X146065715Y-103735238D01*
X146113334Y-103878095D01*
X146113334Y-104116190D01*
X146065715Y-104259048D01*
X145970477Y-104354286D01*
X145875239Y-104401905D01*
X145875239Y-104592381D01*
X146113334Y-104592381D01*
X131572143Y-102683571D02*
X131572143Y-103897857D01*
X131643571Y-104040714D01*
X131715000Y-104112143D01*
X131857857Y-104183571D01*
X132143571Y-104183571D01*
X132286429Y-104112143D01*
X132357857Y-104040714D01*
X132429286Y-103897857D01*
X132429286Y-102683571D01*
X133929286Y-104183571D02*
X133072143Y-104183571D01*
X133500715Y-104183571D02*
X133500715Y-102683571D01*
X133357858Y-102897857D01*
X133215000Y-103040714D01*
X133072143Y-103112143D01*
X135027857Y-120264998D02*
X135027857Y-119764998D01*
X135813571Y-119550712D02*
X135813571Y-120264998D01*
X134313571Y-120264998D01*
X134313571Y-119550712D01*
X135742143Y-118979284D02*
X135813571Y-118764998D01*
X135813571Y-118407855D01*
X135742143Y-118264998D01*
X135670714Y-118193569D01*
X135527857Y-118122141D01*
X135385000Y-118122141D01*
X135242143Y-118193569D01*
X135170714Y-118264998D01*
X135099286Y-118407855D01*
X135027857Y-118693569D01*
X134956429Y-118836427D01*
X134885000Y-118907855D01*
X134742143Y-118979284D01*
X134599286Y-118979284D01*
X134456429Y-118907855D01*
X134385000Y-118836427D01*
X134313571Y-118693569D01*
X134313571Y-118336427D01*
X134385000Y-118122141D01*
X135813571Y-117479284D02*
X134313571Y-117479284D01*
X134313571Y-116907856D01*
X134385000Y-116764998D01*
X134456429Y-116693570D01*
X134599286Y-116622141D01*
X134813571Y-116622141D01*
X134956429Y-116693570D01*
X135027857Y-116764998D01*
X135099286Y-116907856D01*
X135099286Y-117479284D01*
X134956429Y-115764998D02*
X134885000Y-115907856D01*
X134813571Y-115979284D01*
X134670714Y-116050713D01*
X134599286Y-116050713D01*
X134456429Y-115979284D01*
X134385000Y-115907856D01*
X134313571Y-115764998D01*
X134313571Y-115479284D01*
X134385000Y-115336427D01*
X134456429Y-115264998D01*
X134599286Y-115193570D01*
X134670714Y-115193570D01*
X134813571Y-115264998D01*
X134885000Y-115336427D01*
X134956429Y-115479284D01*
X134956429Y-115764998D01*
X135027857Y-115907856D01*
X135099286Y-115979284D01*
X135242143Y-116050713D01*
X135527857Y-116050713D01*
X135670714Y-115979284D01*
X135742143Y-115907856D01*
X135813571Y-115764998D01*
X135813571Y-115479284D01*
X135742143Y-115336427D01*
X135670714Y-115264998D01*
X135527857Y-115193570D01*
X135242143Y-115193570D01*
X135099286Y-115264998D01*
X135027857Y-115336427D01*
X134956429Y-115479284D01*
X134456429Y-114622142D02*
X134385000Y-114550713D01*
X134313571Y-114407856D01*
X134313571Y-114050713D01*
X134385000Y-113907856D01*
X134456429Y-113836427D01*
X134599286Y-113764999D01*
X134742143Y-113764999D01*
X134956429Y-113836427D01*
X135813571Y-114693570D01*
X135813571Y-113764999D01*
X134313571Y-112479285D02*
X134313571Y-112764999D01*
X134385000Y-112907856D01*
X134456429Y-112979285D01*
X134670714Y-113122142D01*
X134956429Y-113193571D01*
X135527857Y-113193571D01*
X135670714Y-113122142D01*
X135742143Y-113050714D01*
X135813571Y-112907856D01*
X135813571Y-112622142D01*
X135742143Y-112479285D01*
X135670714Y-112407856D01*
X135527857Y-112336428D01*
X135170714Y-112336428D01*
X135027857Y-112407856D01*
X134956429Y-112479285D01*
X134885000Y-112622142D01*
X134885000Y-112907856D01*
X134956429Y-113050714D01*
X135027857Y-113122142D01*
X135170714Y-113193571D01*
X134313571Y-111050714D02*
X134313571Y-111336428D01*
X134385000Y-111479285D01*
X134456429Y-111550714D01*
X134670714Y-111693571D01*
X134956429Y-111765000D01*
X135527857Y-111765000D01*
X135670714Y-111693571D01*
X135742143Y-111622143D01*
X135813571Y-111479285D01*
X135813571Y-111193571D01*
X135742143Y-111050714D01*
X135670714Y-110979285D01*
X135527857Y-110907857D01*
X135170714Y-110907857D01*
X135027857Y-110979285D01*
X134956429Y-111050714D01*
X134885000Y-111193571D01*
X134885000Y-111479285D01*
X134956429Y-111622143D01*
X135027857Y-111693571D01*
X135170714Y-111765000D01*
X135242143Y-110265000D02*
X135242143Y-109122143D01*
X134313571Y-108122143D02*
X134313571Y-107979286D01*
X134385000Y-107836429D01*
X134456429Y-107765000D01*
X134599286Y-107693571D01*
X134885000Y-107622143D01*
X135242143Y-107622143D01*
X135527857Y-107693571D01*
X135670714Y-107765000D01*
X135742143Y-107836429D01*
X135813571Y-107979286D01*
X135813571Y-108122143D01*
X135742143Y-108265000D01*
X135670714Y-108336429D01*
X135527857Y-108407857D01*
X135242143Y-108479286D01*
X134885000Y-108479286D01*
X134599286Y-108407857D01*
X134456429Y-108336429D01*
X134385000Y-108265000D01*
X134313571Y-108122143D01*
X134313571Y-107122143D02*
X134313571Y-106193572D01*
X134885000Y-106693572D01*
X134885000Y-106479286D01*
X134956429Y-106336429D01*
X135027857Y-106265000D01*
X135170714Y-106193572D01*
X135527857Y-106193572D01*
X135670714Y-106265000D01*
X135742143Y-106336429D01*
X135813571Y-106479286D01*
X135813571Y-106907858D01*
X135742143Y-107050715D01*
X135670714Y-107122143D01*
X129651429Y-100893571D02*
X129794286Y-100941190D01*
X129841905Y-100988810D01*
X129889524Y-101084048D01*
X129889524Y-101226905D01*
X129841905Y-101322143D01*
X129794286Y-101369762D01*
X129699048Y-101417381D01*
X129318095Y-101417381D01*
X129318095Y-100417381D01*
X129651429Y-100417381D01*
X129746667Y-100465000D01*
X129794286Y-100512619D01*
X129841905Y-100607857D01*
X129841905Y-100703095D01*
X129794286Y-100798333D01*
X129746667Y-100845952D01*
X129651429Y-100893571D01*
X129318095Y-100893571D01*
X130318095Y-101417381D02*
X130318095Y-100417381D01*
X130651429Y-101131667D01*
X130984762Y-100417381D01*
X130984762Y-101417381D01*
X131460952Y-101417381D02*
X131460952Y-100417381D01*
X131841905Y-100417381D01*
X131937143Y-100465000D01*
X131984762Y-100512619D01*
X132032381Y-100607857D01*
X132032381Y-100750714D01*
X131984762Y-100845952D01*
X131937143Y-100893571D01*
X131841905Y-100941190D01*
X131460952Y-100941190D01*
X132413333Y-100512619D02*
X132460952Y-100465000D01*
X132556190Y-100417381D01*
X132794286Y-100417381D01*
X132889524Y-100465000D01*
X132937143Y-100512619D01*
X132984762Y-100607857D01*
X132984762Y-100703095D01*
X132937143Y-100845952D01*
X132365714Y-101417381D01*
X132984762Y-101417381D01*
X133556190Y-100845952D02*
X133460952Y-100798333D01*
X133413333Y-100750714D01*
X133365714Y-100655476D01*
X133365714Y-100607857D01*
X133413333Y-100512619D01*
X133460952Y-100465000D01*
X133556190Y-100417381D01*
X133746667Y-100417381D01*
X133841905Y-100465000D01*
X133889524Y-100512619D01*
X133937143Y-100607857D01*
X133937143Y-100655476D01*
X133889524Y-100750714D01*
X133841905Y-100798333D01*
X133746667Y-100845952D01*
X133556190Y-100845952D01*
X133460952Y-100893571D01*
X133413333Y-100941190D01*
X133365714Y-101036429D01*
X133365714Y-101226905D01*
X133413333Y-101322143D01*
X133460952Y-101369762D01*
X133556190Y-101417381D01*
X133746667Y-101417381D01*
X133841905Y-101369762D01*
X133889524Y-101322143D01*
X133937143Y-101226905D01*
X133937143Y-101036429D01*
X133889524Y-100941190D01*
X133841905Y-100893571D01*
X133746667Y-100845952D01*
X134556190Y-100417381D02*
X134651429Y-100417381D01*
X134746667Y-100465000D01*
X134794286Y-100512619D01*
X134841905Y-100607857D01*
X134889524Y-100798333D01*
X134889524Y-101036429D01*
X134841905Y-101226905D01*
X134794286Y-101322143D01*
X134746667Y-101369762D01*
X134651429Y-101417381D01*
X134556190Y-101417381D01*
X134460952Y-101369762D01*
X134413333Y-101322143D01*
X134365714Y-101226905D01*
X134318095Y-101036429D01*
X134318095Y-100798333D01*
X134365714Y-100607857D01*
X134413333Y-100512619D01*
X134460952Y-100465000D01*
X134556190Y-100417381D01*
M02*
