M48
;DRILL file {kicad 0.201412131231+5320~19~ubuntu14.04.1-product} date Mon 15 Dec 2014 13:13:07 AEDT
;FORMAT={-:-/ absolute / metric / decimal}
FMAT,2
METRIC,TZ
T1C0.635
T2C1.016
%
G90
G05
M71
T1
X127.Y-116.84
X129.54Y-100.33
X130.175Y-96.52
X130.175Y-106.68
X130.175Y-119.38
X132.08Y-114.935
X132.715Y-110.49
X133.985Y-99.06
X134.62Y-97.79
X135.255Y-102.87
X135.255Y-105.41
X136.525Y-99.06
X137.16Y-107.95
X137.16Y-114.935
X138.43Y-120.65
X140.335Y-122.555
X142.875Y-109.22
X144.145Y-122.555
X146.05Y-104.14
X146.685Y-123.19
X147.955Y-111.125
X149.86Y-123.825
T2
X125.095Y-96.52
X125.095Y-101.6
X125.095Y-106.68
X125.095Y-111.76
X125.095Y-116.84
X125.095Y-121.92
X125.095Y-127.
X130.175Y-127.
X135.255Y-127.
X140.335Y-127.
X145.415Y-127.
X150.495Y-127.
T0
M30
